<svg width="254" height="240" viewBox="0 0 254 240" fill="none" xmlns="http://www.w3.org/2000/svg">
<mask id="mask0_1_1957" style="mask-type:luminance" maskUnits="userSpaceOnUse" x="-1" y="0" width="255" height="240">
<path d="M253.685 122.925L84.6323 0L-0.000783862 116.785L169.052 239.711L253.685 122.925Z" fill="white"/>
</mask>
<g mask="url(#mask0_1_1957)">
<path d="M58.6328 35.9201C61.5535 31.5092 65.6284 28.1651 70.1859 25.9478C78.5097 21.8959 89.6326 22.0859 97.1505 30.7096C101.535 35.7406 105.724 40.9891 108.131 47.4243C109.298 50.5454 110.939 53.5042 112.544 56.4402C116.544 63.7548 118.913 71.7358 121.084 79.6531C123.022 86.7263 125.275 93.7695 126.615 100.978C127.505 105.758 127.347 110.751 127.458 115.653C127.511 117.992 126.187 119.222 123.792 119.728C123.574 119.773 123.352 119.824 123.132 119.829C113.985 119.982 105.87 124.035 97.3598 126.619C92.6764 128.041 87.947 129.34 83.1795 130.45C80.0489 131.181 78.118 129.962 76.9282 126.862C74.3689 120.194 71.953 113.472 69.3578 106.82C67.3326 101.631 65.2858 96.4958 63.8356 91.0676C62.7608 87.0484 60.409 83.3315 58.3642 79.6245C56.9275 77.0203 56.0753 74.4044 55.8294 71.4145C55.4058 66.2991 54.9583 61.1348 53.8637 56.1363C52.1951 48.5038 54.4748 42.0431 58.6328 35.9201ZM84.3332 121.125C88.1018 121.764 90.9517 121.291 93.7022 120.295C99.9952 118.015 106.266 115.673 112.517 113.282C113.536 112.893 114.361 112.028 115.354 111.54C119.197 109.653 120.231 106.342 119.485 102.534C118.203 95.973 117.126 89.292 115.003 82.986C110.881 70.7409 107.247 58.2178 99.7072 47.4176C99.199 46.6878 98.7146 45.8916 98.4498 45.0523C96.62 39.2709 92.0879 36.0523 87.2854 33.0672C84.0291 31.042 80.6004 30.902 76.9679 31.8722C73.351 32.8399 70.8523 35.3725 68.0482 37.5989C62.605 41.9203 60.5352 47.677 61.1625 54.2166C62.0143 63.1013 63.2447 71.8975 67.2529 80.1895C71.3296 88.6186 75.3743 97.1012 78.3267 106.055C79.9956 111.129 82.2626 115.994 84.3332 121.125Z" fill="#8F7D6A"/>
<path d="M136.725 123.395C144.52 118.959 152.672 115.149 161.716 112.855C169.099 110.983 176.503 109.762 183.986 108.673C195.51 106.993 207.13 106.164 218.72 106.515C226.732 106.757 234.648 108.929 241.283 113.911C244.713 116.486 247.194 120.006 248.453 124.215C249.438 127.509 248.479 130.489 246.351 132.973C240.499 139.815 234.136 146.173 225.568 149.478C220.804 151.315 215.744 152.428 210.763 153.65C200.574 156.148 190.389 158.689 180.123 160.844C172.503 162.441 165.012 164.682 157.15 165.235C153.486 165.493 151.007 164.352 149.278 161.437C146.998 157.598 144.829 153.682 142.843 149.681C140.756 145.479 139.036 141.092 136.984 136.87C134 130.721 133.934 130.753 136.725 123.395ZM235.887 131.613C239.455 126.532 238.685 121.451 234.477 118.427C233.221 117.524 231.82 116.768 230.391 116.183C225.372 114.131 220.187 113.158 214.708 113.506C203.804 114.199 192.915 114.906 182.081 116.462C172.999 117.767 164.136 119.919 155.374 122.526C152.409 123.409 149.526 124.757 146.819 126.27C143.858 127.928 143.369 129.894 144.707 133.055C145.832 135.717 147.4 138.219 148.27 140.954C149.8 145.747 152.564 149.738 155.535 153.67C157.346 156.067 159.526 156.789 162.531 156.369C170.278 155.292 177.854 153.511 185.408 151.553C193.82 149.37 202.203 147.033 210.704 145.261C217.389 143.866 223.512 141.392 229.054 137.545C231.776 135.654 234.102 133.185 235.887 131.613Z" fill="#8F7D6A"/>
<path d="M99.1305 176.76C100.976 178.053 101.523 180.744 100.348 182.765C99.0395 185.019 94.6503 185.785 92.6038 184.118C90.8148 182.661 90.5457 179.997 91.9963 178.086C93.7653 175.761 96.8773 175.181 99.1305 176.76Z" fill="#8F7D6A"/>
<path d="M86.0764 148.076C88.0723 149.475 88.554 151.899 87.2543 153.982C85.7879 156.328 82.5248 156.861 80.2088 155.128C78.6992 154.002 78.6889 151.221 80.182 149.007C81.4986 147.055 84.046 146.652 86.0764 148.076Z" fill="#8F7D6A"/>
<path d="M122.195 173.298C119.718 171.536 119.003 169.323 119.98 167.719C121.074 165.921 123.06 165.18 125.191 165.824C125.824 166.014 126.454 166.287 127.014 166.638C128.428 167.524 129.304 168.73 129.058 170.52C128.811 172.329 127.401 173.794 125.436 173.84C124.168 173.869 122.888 173.425 122.195 173.298Z" fill="#8F7D6A"/>
<path d="M105.942 160.707C107.713 161.998 107.923 164.71 106.404 166.651C104.949 168.509 102.492 168.827 100.476 167.421C98.4472 166.004 97.9372 163.365 99.3547 161.616C100.907 159.696 103.973 159.272 105.942 160.707Z" fill="#8F7D6A"/>
<path d="M121.87 147.56C123.891 145.131 126.94 144.639 128.747 146.449C130.192 147.899 130.009 150.657 128.348 152.425C126.508 154.38 123.885 154.536 121.869 152.807C120.27 151.435 120.269 149.484 121.87 147.56Z" fill="#8F7D6A"/>
<path d="M124.41 136.837C123.098 138.729 120.665 138.974 118.592 137.421C116.682 135.991 116.078 133.712 117.23 132.281C119.031 130.041 122.327 129.372 124.282 130.846C125.861 132.036 125.918 134.665 124.41 136.837Z" fill="#8F7D6A"/>
<path d="M104.938 145.089C103.644 146.841 100.754 147.244 98.9553 145.925C97.4488 144.819 96.9393 141.928 97.9974 140.501C99.1712 138.925 102.405 138.21 104.06 139.165C105.864 140.208 106.312 143.232 104.938 145.089Z" fill="#8F7D6A"/>
<path d="M117.229 190.339C116.067 192.012 113.598 192.657 112.021 191.706C110.129 190.565 109.555 187.686 110.879 185.96C112.258 184.162 114.793 183.782 116.75 185.075C118.307 186.107 118.523 188.484 117.229 190.339Z" fill="#8F7D6A"/>
</g>
</svg>
