<svg width="175" height="217" viewBox="0 0 175 217" fill="none" xmlns="http://www.w3.org/2000/svg">
<g opacity="0.2" clip-path="url(#clip0_1_753)">
<path d="M79.0043 124.624C79.3483 123.34 79.3039 121.983 78.8766 120.724C78.4493 119.465 77.6584 118.361 76.6038 117.552C75.5493 116.743 74.2784 116.265 72.952 116.178C71.6256 116.091 70.3032 116.399 69.152 117.064C68.0009 117.728 67.0726 118.719 66.4847 119.912C65.8968 121.104 65.6756 122.444 65.8491 123.761C66.0226 125.079 66.583 126.316 67.4595 127.315C68.3359 128.315 69.489 129.032 70.773 129.376C72.4946 129.835 74.3282 129.593 75.8713 128.702C77.4144 127.811 78.5412 126.344 79.0043 124.624ZM71.8434 125.381C71.3496 125.249 70.9061 124.973 70.569 124.589C70.2319 124.204 70.0164 123.728 69.9496 123.222C69.8829 122.715 69.968 122.199 70.1941 121.741C70.4202 121.282 70.7772 120.901 71.22 120.646C71.6628 120.39 72.1714 120.271 72.6815 120.305C73.1917 120.338 73.6805 120.522 74.0861 120.833C74.4917 121.145 74.7959 121.569 74.9602 122.053C75.1246 122.537 75.1416 123.059 75.0093 123.553C74.8312 124.215 74.3979 124.779 73.8044 125.122C73.2108 125.464 72.5056 125.558 71.8434 125.381Z" fill="#8F7D6A"/>
<path d="M83.5884 152.792C85.1686 153.215 86.839 153.16 88.3881 152.635C89.9373 152.109 91.2958 151.135 92.2917 149.837C93.2877 148.539 93.8764 146.975 93.9834 145.343C94.0904 143.71 93.7109 142.083 92.8929 140.666C92.0748 139.249 90.8551 138.107 89.3878 137.383C87.9205 136.659 86.2716 136.387 84.6496 136.601C83.0276 136.814 81.5053 137.504 80.2753 138.583C79.0453 139.661 78.1628 141.081 77.7393 142.661C77.1742 144.78 77.4726 147.036 78.5691 148.936C79.6657 150.835 81.4707 152.222 83.5884 152.792ZM86.7997 140.807C87.5899 141.018 88.2995 141.46 88.8388 142.075C89.3781 142.69 89.723 143.451 89.8298 144.262C89.9366 145.073 89.8004 145.897 89.4386 146.631C89.0768 147.365 88.5056 147.975 87.7972 148.384C87.0888 148.793 86.275 148.982 85.4588 148.929C84.6425 148.875 83.8605 148.581 83.2115 148.083C82.5625 147.585 82.0758 146.906 81.8129 146.131C81.5499 145.357 81.5226 144.521 81.7343 143.731C82.0193 142.672 82.7126 141.77 83.6623 141.222C84.6119 140.673 85.7402 140.524 86.7997 140.807Z" fill="#8F7D6A"/>
<path d="M52.8966 160.803C52.5878 161.955 52.6277 163.173 53.0111 164.303C53.3946 165.432 54.1044 166.423 55.0508 167.149C55.9972 167.875 57.1377 168.305 58.3281 168.383C59.5184 168.461 60.7052 168.184 61.7383 167.588C62.7714 166.991 63.6044 166.102 64.132 165.032C64.6597 163.962 64.8582 162.76 64.7025 161.577C64.5468 160.394 64.0438 159.284 63.2573 158.387C62.4707 157.49 61.4359 156.847 60.2836 156.538C58.7385 156.126 57.0931 156.344 55.7083 157.143C54.3235 157.943 53.3123 159.259 52.8966 160.803ZM60.5536 162.855C60.4565 163.217 60.2543 163.542 59.9724 163.789C59.6905 164.037 59.3417 164.195 58.97 164.244C58.5983 164.292 58.2204 164.23 57.8841 164.064C57.5479 163.898 57.2684 163.637 57.0809 163.312C56.8934 162.987 56.8065 162.614 56.831 162.24C56.8555 161.866 56.9904 161.508 57.2187 161.21C57.4469 160.913 57.7582 160.69 58.1132 160.569C58.4682 160.449 58.851 160.436 59.2132 160.533C59.6985 160.664 60.1122 160.981 60.3635 161.417C60.6148 161.852 60.6831 162.369 60.5536 162.855Z" fill="#8F7D6A"/>
<path d="M85.9217 188.028C87.4361 188.434 89.0368 188.382 90.5214 187.878C92.0061 187.374 93.3079 186.441 94.2624 185.197C95.2168 183.953 95.781 182.454 95.8835 180.89C95.9861 179.325 95.6224 177.766 94.8385 176.408C94.0545 175.05 92.8856 173.955 91.4794 173.262C90.0733 172.568 88.4931 172.307 86.9387 172.512C85.3842 172.717 83.9254 173.378 82.7466 174.411C81.5679 175.445 80.7221 176.805 80.3163 178.32C79.7747 180.35 80.0606 182.513 81.1115 184.333C82.1623 186.153 83.8922 187.482 85.9217 188.028ZM88.9546 176.709C89.6789 176.903 90.3294 177.308 90.8238 177.872C91.3182 178.435 91.6343 179.133 91.7322 179.876C91.83 180.62 91.7053 181.376 91.3736 182.048C91.042 182.721 90.5184 183.28 89.869 183.655C89.2196 184.03 88.4736 184.203 87.7254 184.154C86.9772 184.105 86.2603 183.836 85.6654 183.379C85.0705 182.923 84.6243 182.3 84.3833 181.59C84.1423 180.88 84.1172 180.114 84.3113 179.39C84.5725 178.419 85.2081 177.592 86.0786 177.089C86.9491 176.587 87.9834 176.45 88.9546 176.709Z" fill="#8F7D6A"/>
<path d="M110.926 165.29C111.323 163.809 111.271 162.243 110.778 160.791C110.285 159.338 109.373 158.065 108.156 157.131C106.939 156.197 105.473 155.645 103.942 155.545C102.412 155.445 100.886 155.801 99.5576 156.567C98.2293 157.334 97.1583 158.478 96.4799 159.853C95.8016 161.229 95.5463 162.775 95.7465 164.296C95.9467 165.816 96.5934 167.243 97.6046 168.396C98.6159 169.55 99.9464 170.377 101.428 170.774C103.414 171.304 105.53 171.024 107.311 169.996C109.091 168.968 110.391 167.276 110.926 165.29ZM99.9394 162.347C100.125 161.655 100.511 161.034 101.049 160.562C101.587 160.091 102.253 159.789 102.963 159.695C103.672 159.602 104.394 159.721 105.036 160.038C105.678 160.354 106.211 160.854 106.569 161.474C106.927 162.094 107.093 162.806 107.046 163.52C106.999 164.234 106.742 164.919 106.306 165.486C105.87 166.054 105.276 166.48 104.598 166.71C103.92 166.94 103.19 166.964 102.498 166.779C101.572 166.53 100.782 165.923 100.302 165.092C99.8227 164.261 99.6921 163.274 99.9394 162.347Z" fill="#8F7D6A"/>
<path d="M91.5396 122.452C92.8235 122.796 94.1807 122.752 95.4394 122.324C96.6981 121.897 97.8019 121.106 98.6111 120.052C99.4203 118.997 99.8986 117.726 99.9855 116.4C100.072 115.073 99.7641 113.751 99.0995 112.6C98.4348 111.449 97.4438 110.52 96.2516 109.933C95.0594 109.345 93.7197 109.123 92.4018 109.297C91.0839 109.47 89.8471 110.031 88.8477 110.907C87.8483 111.784 87.1313 112.937 86.7872 114.221C86.3281 115.942 86.5706 117.776 87.4615 119.319C88.3524 120.862 89.819 121.989 91.5396 122.452ZM93.9481 113.463C94.4419 113.596 94.8854 113.872 95.2225 114.256C95.5596 114.64 95.7751 115.116 95.8419 115.623C95.9086 116.13 95.8235 116.645 95.5974 117.104C95.3713 117.562 95.0143 117.943 94.5715 118.199C94.1288 118.455 93.6202 118.573 93.11 118.54C92.5998 118.506 92.1111 118.322 91.7055 118.011C91.2998 117.7 90.9956 117.275 90.8313 116.791C90.667 116.307 90.6499 115.785 90.7822 115.291C90.9603 114.629 91.3936 114.065 91.9872 113.723C92.5807 113.38 93.2859 113.287 93.9481 113.463Z" fill="#8F7D6A"/>
<path d="M107.383 100.804C100.797 104.558 109.164 123.322 115.143 133.817C119.251 141.027 123.826 147.426 128.022 151.837C131.165 155.139 133.822 157.076 136.053 157.673C136.636 157.857 137.25 157.92 137.858 157.859C138.466 157.799 139.055 157.615 139.591 157.321L178.601 135.089C186.053 130.796 191.502 123.727 193.755 115.427C196.008 107.127 194.882 98.273 190.624 90.8011C186.366 83.3292 179.322 77.848 171.032 75.5566C162.743 73.2651 153.884 74.35 146.392 78.5739L107.382 100.806L107.383 100.804ZM148.441 82.1654C151.681 80.3052 155.256 79.1027 158.961 78.6269C162.667 78.1511 166.429 78.4113 170.034 79.3926C173.639 80.3739 177.014 82.057 179.967 84.3454C182.92 86.6338 185.392 89.4825 187.242 92.7282C189.091 95.9739 190.282 99.5528 190.746 103.26C191.21 106.967 190.938 110.729 189.945 114.33C188.952 117.931 187.258 121.301 184.96 124.247C182.662 127.192 179.805 129.655 176.553 131.494L141.992 151.191C141.833 148.946 141.423 146.725 140.769 144.572C139.113 138.713 135.938 131.516 131.83 124.306C127.721 117.097 123.147 110.697 118.95 106.287C117.431 104.626 115.729 103.142 113.878 101.862L148.441 82.1654ZM109.435 104.404C109.953 104.319 112.209 105.082 116.412 109.624C120.26 113.783 124.46 119.725 128.239 126.355C132.017 132.986 134.989 139.628 136.606 145.059C138.37 150.991 137.878 153.321 137.541 153.722C137.023 153.805 134.767 153.042 130.565 148.501C126.717 144.342 122.517 138.4 118.738 131.77C114.959 125.14 111.988 118.497 110.371 113.067C108.603 107.137 109.097 104.807 109.435 104.404Z" fill="#8F7D6A"/>
<path d="M64.7795 97.3235C65.394 98.402 66.4097 99.0805 67.727 99.4335C74.4549 101.236 89.0154 94.5663 97.7919 89.5647C105.001 85.4562 111.401 80.8822 115.812 76.6851C121.08 71.6719 122.874 67.8879 121.295 65.1166L106.803 39.686C106.531 39.2094 98.7327 25.0787 98.2038 24.9338C97.6748 24.7889 104.459 38.6416 103.982 38.9132C103.505 39.1848 103.156 39.6345 103.011 40.1635C102.867 40.6925 102.938 41.2574 103.209 41.7339L115.169 62.7181C107.732 63.0044 95.8552 68.5603 88.2829 72.8758C81.0737 76.9846 74.6739 81.5584 70.2631 85.7552C68.6027 87.2748 67.1184 88.9763 65.8382 90.8277L46.1415 56.2661C42.5066 49.8879 41.4842 42.3494 43.2889 35.2334C45.0935 28.1174 49.585 21.9773 55.8203 18.1022C62.0555 14.2272 69.5496 12.9185 76.7292 14.4511C83.9087 15.9836 90.2153 20.2381 94.3249 26.3214C94.8007 27.7697 96.1539 30.4978 96.6872 30.5936C103.672 45.0132 104.572 41.0064 105.02 40.7018C105.468 40.3971 101.908 31.5288 98.044 25.5299C104.887 39.7458 98.0458 24.4467 97.7507 23.9923C93.0385 17.0274 85.8121 12.1583 77.5875 10.4064C69.3629 8.65455 60.7794 10.1562 53.6381 14.5962C46.4967 19.0362 41.3525 26.0695 39.2848 34.2204C37.217 42.3713 38.3865 51.0063 42.5478 58.3136L64.7795 97.3235ZM73.5993 88.2961C77.7583 84.4479 83.7001 80.2475 90.3302 76.4691C96.9604 72.6907 103.603 69.7192 109.034 68.1022C114.964 66.3371 117.294 66.8297 117.697 67.1664C117.781 67.6839 117.018 69.9407 112.476 74.1431C108.317 77.9913 102.375 82.1914 95.745 85.9701C89.1148 89.7488 82.4744 92.7198 77.0422 94.3368C71.1101 96.1014 68.7802 95.6081 68.3787 95.2728C68.2944 94.7553 69.0571 92.4987 73.5993 88.2961Z" fill="#8F7D6A"/>
</g>
<defs>
<clipPath id="clip0_1_753">
<rect width="176.465" height="176.465" fill="white" transform="translate(45.6725) rotate(15)"/>
</clipPath>
</defs>
</svg>
