<svg width="168" height="168" viewBox="0 0 168 168" fill="none" xmlns="http://www.w3.org/2000/svg">
<g opacity="0.1" clip-path="url(#clip0_0_1118)">
<path d="M111.131 70.5205C110.67 70.7558 110.137 70.797 109.647 70.6413L70.3553 57.9153C69.3351 57.585 68.7742 56.4874 69.1044 55.4672L77.7745 28.6799C79.6339 22.9352 83.6155 18.259 88.986 15.5149C94.3566 12.7708 100.482 12.2826 106.224 14.1437C111.965 16.0048 116.65 19.9863 119.394 25.3568C122.14 30.7308 122.626 36.8532 120.765 42.5944L112.097 69.3852C111.937 69.877 111.591 70.2852 111.131 70.5205ZM73.4046 54.8158L108.999 66.3393L117.07 41.3954C118.605 36.6414 118.203 31.5721 115.931 27.1261C113.659 22.6801 109.787 19.3836 105.032 17.8443C100.276 16.305 95.2048 16.704 90.7553 18.9775C86.3058 21.251 83.0128 25.1213 81.4735 29.8771L73.4046 54.8158Z" fill="#8F7D6A"/>
<path d="M56.9546 98.2023C56.4941 98.4376 55.9605 98.4787 55.4705 98.323L28.6814 89.6495C16.826 85.8122 10.3063 73.0524 14.1435 61.197C16.0027 55.4436 19.9861 50.7709 25.3566 48.0267C30.7272 45.2826 36.8478 44.7927 42.5942 46.6555L69.385 55.3239C69.8768 55.483 70.2815 55.8308 70.5168 56.2913C70.7521 56.7519 70.7933 57.2854 70.6376 57.7754L57.9168 97.0687C57.7611 97.5587 57.4151 97.967 56.9546 98.2023ZM27.1259 51.4894C22.6764 53.7629 19.3799 57.6349 17.8406 62.3907C14.6673 72.204 20.0653 82.7685 29.8769 85.947L54.8191 94.0229L66.3409 58.425L41.397 50.3545C36.6412 48.8152 31.5719 49.2177 27.1259 51.4894Z" fill="#8F7D6A"/>
<path d="M104.766 98.2651C100.975 100.202 95.2036 101.461 88.3925 97.361C76.4766 90.1837 75.7168 72.2712 75.6928 71.515C75.6664 70.6857 76.1711 69.93 76.9407 69.6329C77.7171 69.3322 78.5956 69.5645 79.1298 70.1998C81.2439 72.7221 84.9436 74.2028 88.1259 73.7907C95.2862 72.8743 101.87 74.8377 106.195 79.1823C110.117 83.1165 111.136 88.6395 111.395 90.8302C111.519 91.9021 110.768 92.8669 109.691 92.9893C108.624 93.1151 107.657 92.3514 107.531 91.2848C107.319 89.4937 106.499 85.0002 103.434 81.9245C98.5149 76.9799 91.4363 77.2868 88.617 77.6488C85.7803 78.0109 82.7364 77.3523 80.1345 75.9264C81.0908 81.2847 83.6482 89.9646 90.3999 94.0341C94.8508 96.7117 99.3117 96.9388 103.406 94.5849L103.465 94.5549C104.396 94.0789 105.542 94.4237 106.05 95.3427C106.57 96.2825 106.229 97.4697 105.293 97.9874C105.121 98.0794 104.947 98.1731 104.766 98.2651Z" fill="#8F7D6A"/>
<path d="M118.693 92.175C118.548 92.2493 118.394 92.3063 118.227 92.339C100.754 96.1887 87.4847 86.3972 87.3586 86.2957C86.5077 85.6388 86.3509 84.4176 87.0096 83.5702C87.6717 82.721 88.8894 82.566 89.7351 83.2212C89.8541 83.3089 101.905 91.9545 117.389 88.5448C118.439 88.3096 119.478 88.9753 119.702 90.0219C119.9 90.9123 119.462 91.7822 118.693 92.175Z" fill="#8F7D6A"/>
<path d="M96.5461 141.521C96.006 141.797 95.4552 142.052 94.8937 142.278C88.5255 144.881 81.699 143.408 79.0579 142.658C78.0258 142.364 77.4268 141.286 77.7204 140.254C78.0192 139.223 79.0922 138.623 80.1243 138.916C82.3732 139.558 88.1787 140.818 93.4224 138.68C101.854 135.193 105 126.634 105.971 123.09C106.994 119.358 109.541 115.925 112.827 113.613C106.199 112 93.8214 110.268 85.1171 116.606C79.6446 120.621 77.2188 125.812 77.9043 132.033C78.0197 133.097 77.2507 134.053 76.1805 134.181C75.112 134.294 74.1523 133.527 74.0334 132.457C73.4499 127.161 74.5001 119.568 82.8134 113.473C96.8237 103.179 117.882 110.978 118.774 111.313C119.55 111.601 120.056 112.361 120.028 113.187C120.004 114.02 119.45 114.748 118.665 114.988C114.518 116.264 110.834 120.028 109.717 124.114C107.529 132.097 102.779 138.336 96.5461 141.521Z" fill="#8F7D6A"/>
<path d="M77.1151 152.58C76.7481 152.768 76.3192 152.843 75.8837 152.76C74.8265 152.571 74.1238 151.563 74.3163 150.504C78.3093 128.399 96.0419 117.801 96.2167 117.699C97.1042 117.171 98.3418 117.499 98.8682 118.436C99.3946 119.372 99.0693 120.555 98.1314 121.087C97.9687 121.179 81.7577 131.174 78.1343 151.199C78.0285 151.821 77.6345 152.315 77.1151 152.58Z" fill="#8F7D6A"/>
<path d="M109.858 49.1847C109.415 49.4111 108.885 49.4679 108.374 49.3054C107.354 48.9752 106.793 47.8776 107.123 46.8573L109.665 39.0043C111.517 33.2719 108.363 27.098 102.632 25.2403C101.612 24.9101 101.051 23.8124 101.381 22.7922C101.711 21.772 102.809 21.2111 103.829 21.5413C111.595 24.0578 115.873 32.4304 113.364 40.2015L110.822 48.0546C110.658 48.5621 110.301 48.9582 109.858 49.1847Z" fill="#8F7D6A"/>
<path d="M107.243 56.9968C106.803 57.2215 106.278 57.28 105.769 57.121C104.747 56.796 104.179 55.7019 104.499 54.6783L104.616 54.3086C104.946 53.2884 106.039 52.7171 107.059 53.0386C108.081 53.3636 108.648 54.4577 108.329 55.4813L108.212 55.851C108.044 56.369 107.689 56.7686 107.243 56.9968Z" fill="#8F7D6A"/>
</g>
<defs>
<clipPath id="clip0_0_1118">
<rect width="124.431" height="124.431" fill="white" transform="translate(0 56.6162) rotate(-27.065)"/>
</clipPath>
</defs>
</svg>
