<svg width="179" height="161" viewBox="0 0 179 161" fill="none" xmlns="http://www.w3.org/2000/svg">
<path d="M17.5994 61.6046C17.2208 62.8044 17.0116 64.0451 17.067 65.3015C17.1922 68.2467 18.7719 70.9979 20.9104 73.0331C26.6257 78.4752 34.6781 79.5193 42.221 79.5375C52.2537 79.562 61.7748 77.9171 71.4372 75.455C74.8767 74.5783 78.3344 73.7563 81.7412 72.7623C92.1839 69.7111 102.356 64.7585 112.54 60.9057C116.26 59.4984 120.06 58.0597 123.115 55.5184C127.053 52.2413 129.986 44.89 128.041 39.8447C126.119 34.859 120.227 31.9669 115.427 30.5153C113.121 29.8175 110.735 29.421 108.346 29.1146C84.6464 26.085 60.4589 32.0292 38.9568 42.3916C31.1927 46.1331 23.3469 50.7947 19.0869 58.2779C18.4877 59.3315 17.9647 60.4492 17.5994 61.6046ZM74.8592 70.6601C73.1258 71.1399 71.6614 71.6508 70.1554 71.9419C66.1263 72.7192 62.0834 73.4422 58.0348 74.1141C52.1034 75.0977 46.1419 75.6379 40.1272 74.9805C36.9372 74.6318 33.7439 74.3016 30.562 73.8773C29.8334 73.7804 29.0233 73.4831 28.4717 73.0178C26.8647 71.6602 25.278 70.2548 23.8561 68.7103C22.2258 66.9395 21.0474 63.7151 22.9769 60.7148C23.7561 59.504 24.5824 58.3209 25.3028 57.0747C26.2052 55.5125 27.2848 54.0889 28.7733 53.0904C31.0699 51.5494 33.3332 49.8711 35.8317 48.7394C41.6927 46.0866 47.6747 43.6979 53.6304 41.2556C57.017 39.8678 60.413 38.4887 63.8715 37.2987C65.5008 36.7386 67.163 35.9486 69.1479 36.2599C69.3254 36.7837 69.6043 37.2833 69.6505 37.8021C69.8606 40.1208 70.0366 42.4433 70.1671 44.7681C70.3541 48.0816 70.1878 51.4352 71.4656 54.6118C71.6673 55.1139 71.6854 55.6968 71.753 56.246C72.2256 60.1047 72.8866 63.9256 74.0789 67.64C74.3487 68.4768 74.5228 69.3447 74.8592 70.6601ZM74.5068 35.2648C75.6055 34.1355 76.9313 34.0152 78.2627 33.8943C80.5825 33.6845 82.9305 33.6249 85.2144 33.2142C89.9727 32.3604 94.738 33.0683 99.4962 32.9497C101.597 32.8973 103.704 33.1016 105.807 33.0742C107.593 33.052 109.359 33.0518 111.084 33.5914C114.707 34.7254 118.166 36.1065 121.11 38.6626C123.704 40.9155 124.647 43.0102 123.647 46.2346C121.977 51.6232 118.583 55.2257 112.818 56.29C111.52 56.5286 110.231 56.949 109.016 57.4691C104.226 59.5212 99.4108 61.5295 94.7111 63.775C89.9815 66.0338 84.9372 67.4034 80.085 69.3015C79.8038 69.4114 79.439 69.3109 79.1271 69.3089C75.634 58.2741 74.671 46.943 74.5068 35.2648Z" fill="#8F7D6A"/>
<path d="M145.393 136.514C149.729 125.561 153.708 114.472 157.882 103.459C160.226 97.2736 162.629 91.1103 165.193 85.0128C167.534 79.4415 171.602 73.7437 170.764 67.5846C169.946 61.5602 167.48 56.781 162.158 53.5153C160.288 52.3681 158.325 51.5532 155.896 51.7809C150.766 52.2604 146.871 53.0915 142.995 56.8061C139.401 60.2498 137.028 64.8364 135.082 69.3566C131.228 78.3141 128.356 87.667 124.531 96.6365C121.336 104.127 117.483 111.33 114.454 118.89C110.219 129.459 105.481 142.833 116.146 151.479C122.033 156.253 131.372 156.469 137.058 151.474C140.443 148.5 142.299 144.197 143.989 140.02C144.462 138.854 144.929 137.684 145.393 136.514ZM150.922 108.72C151.22 110.604 150.413 112.102 149.826 113.612C147.651 119.193 145.504 124.785 143.202 130.314C141.412 134.611 139.293 138.771 137.539 143.079C136.374 145.94 134.102 147.643 131.836 149.415C131.328 149.812 130.676 150.074 130.049 150.259C127.383 151.049 124.785 150.819 122.26 149.637C120.321 148.729 118.701 147.383 117.179 145.926C114.386 143.252 114.456 143.219 113.568 139.448C113.273 138.194 113.398 137.047 113.678 135.847C113.904 134.88 114.112 133.897 114.189 132.91C114.383 130.449 114.978 128.095 115.919 125.826C118.214 120.293 120.474 114.744 122.849 109.246C123.859 106.907 125.087 104.66 126.28 102.404C126.774 101.47 127.665 101.299 128.53 101.83C135.876 106.345 142.37 108.504 150.922 108.72ZM152.942 103.155C150.536 103.44 148.005 104.305 145.593 104.243C143.489 104.19 141.5 103.33 139.572 102.486C136.848 101.292 134.09 100.077 131.769 98.2203C131.022 97.6224 130.306 96.9357 129.934 96.0558C129.092 94.0615 131.141 91.5987 131.658 89.7172C133.252 83.909 135.854 78.4914 137.992 72.8954C139.392 69.2335 141.311 65.8601 143.489 62.6527C146.5 58.2175 150.613 55.743 156.211 56.3207C158.155 56.5217 160.016 57.0732 161.401 58.3812C165.059 61.8348 167.168 66.0099 166.25 71.1917C165.569 75.0421 164.21 78.7122 162.298 82.105C159.122 87.7432 156.971 93.8104 154.556 99.7708C154.061 100.989 153.773 102.308 152.942 103.155Z" fill="#8F7D6A"/>
</svg>
