<svg width="249" height="242" viewBox="0 0 249 242" fill="none" xmlns="http://www.w3.org/2000/svg">
<g opacity="0.1">
<path d="M48.6455 214.905C48.1999 216.688 48.0801 218.55 48.2932 220.384C48.5063 222.219 49.0479 223.989 49.8872 225.594C50.7266 227.2 51.8471 228.609 53.1849 229.741C54.5227 230.874 56.0516 231.707 57.6842 232.194L87.9735 241.234C89.0865 241.566 90.2352 241.736 91.3892 241.737C94.5081 241.729 97.5186 240.486 99.8627 238.238C102.207 235.991 103.726 232.891 104.138 229.513C104.55 226.136 103.828 222.71 102.105 219.869C100.381 217.029 97.7742 214.968 94.7663 214.067L79.6237 209.55L64.4811 205.032C61.183 204.053 57.6643 204.543 54.696 206.393C51.7277 208.244 49.5519 211.304 48.6455 214.905ZM93.6861 218.365C95.9234 219.054 97.8207 220.681 98.9648 222.892C100.109 225.103 100.407 227.718 99.7945 230.168C99.1819 232.618 97.708 234.704 95.694 235.972C93.6799 237.24 91.2888 237.588 89.0414 236.939L75.8635 233.006L80.5061 214.432L93.6861 218.365ZM63.3948 209.325L76.5727 213.257L71.9403 231.833L58.7623 227.901C57.6459 227.568 56.6004 226.998 55.6856 226.223C54.7708 225.449 54.0045 224.485 53.4307 223.387C52.8568 222.289 52.4864 221.079 52.3408 219.824C52.1952 218.57 52.2772 217.297 52.582 216.077C52.8868 214.857 53.4086 213.715 54.1175 212.715C54.8264 211.716 55.7085 210.879 56.7135 210.252C57.7185 209.625 58.8267 209.22 59.9748 209.061C61.123 208.902 62.2885 208.992 63.405 209.325H63.3948Z" fill="#8F7D6A"/>
<path d="M76.5931 185.532H107.991C111.409 185.532 114.688 184.048 117.105 181.408C119.522 178.767 120.88 175.185 120.88 171.451C120.88 167.716 119.522 164.135 117.105 161.494C114.688 158.854 111.409 157.37 107.991 157.37H76.5931C73.1749 157.37 69.8966 158.854 67.4796 161.494C65.0625 164.135 63.7046 167.716 63.7046 171.451C63.7046 175.185 65.0625 178.767 67.4796 181.408C69.8966 184.048 73.1749 185.532 76.5931 185.532ZM116.806 171.451C116.803 174.004 115.873 176.451 114.221 178.256C112.568 180.061 110.328 181.076 107.991 181.079H94.3363V161.834H107.991C110.326 161.837 112.565 162.85 114.217 164.653C115.869 166.455 116.8 168.9 116.806 171.451ZM76.5931 161.834H90.248V181.09H76.5931C74.2559 181.09 72.0144 180.075 70.3618 178.27C68.7091 176.464 67.7807 174.015 67.7807 171.462C67.7807 168.909 68.7091 166.46 70.3618 164.654C72.0144 162.849 74.2559 161.834 76.5931 161.834Z" fill="#8F7D6A"/>
<path d="M49.9151 162.057C49.6135 161.861 49.3037 161.688 48.9919 161.521C48.9145 158.097 47.693 154.822 45.5578 152.314L24.1686 127.174C21.8387 124.442 18.6108 122.833 15.1951 122.701C11.7793 122.569 8.45544 123.925 5.95472 126.47C3.454 129.016 1.98126 132.542 1.86049 136.274C1.73971 140.005 2.98079 143.637 5.3107 146.369L21.7067 165.62L9.71897 168.96C8.07835 169.414 6.53579 170.218 5.17936 171.324C3.82294 172.43 2.67922 173.817 1.8135 175.406C0.0650972 178.615 -0.444799 182.452 0.395981 186.072C1.23676 189.692 3.35934 192.798 6.29679 194.709C9.23423 196.619 12.7459 197.176 16.0593 196.257L46.4933 187.821C48.968 187.139 51.2016 185.669 52.911 183.598C54.6203 181.528 55.7285 178.949 56.095 176.19C56.4615 173.43 56.0699 170.614 54.9697 168.098C53.8695 165.582 52.1103 163.48 49.9151 162.057ZM44.7446 160.169C43.2078 159.98 41.6522 160.095 40.153 160.51L26.2128 164.373L20.3779 157.517L33.2787 144.416L42.5803 155.353C43.7103 156.7 44.4617 158.373 44.7446 160.174V160.169ZM8.74072 129.714C10.4712 128.018 12.7369 127.123 15.06 127.217C17.3831 127.311 19.582 128.386 21.1931 130.217L30.4947 141.152L17.596 154.264L8.29642 143.336C6.70856 141.462 5.86403 138.977 5.94728 136.425C6.03052 133.873 7.03477 131.46 8.74072 129.714ZM15.0586 191.931C12.793 192.559 10.3919 192.178 8.38339 190.872C6.3749 189.566 4.92359 187.441 4.34875 184.966C3.77391 182.491 4.12261 179.868 5.31815 177.674C6.51369 175.479 8.45813 173.894 10.7237 173.266L23.971 169.594L28.3059 188.259L15.0586 191.931ZM50.8975 179.086C50.3084 180.175 49.5273 181.125 48.5995 181.882C47.6718 182.639 46.6157 183.187 45.4926 183.495L32.2454 187.164L27.9186 168.501L41.1659 164.829C41.8792 164.631 42.6124 164.53 43.3486 164.529C44.9044 164.533 46.4315 164.986 47.7749 165.843C49.1184 166.7 50.2303 167.931 50.9978 169.409C51.7653 170.887 52.1611 172.561 52.1449 174.261C52.1287 175.961 51.7011 177.625 50.9056 179.086H50.8975Z" fill="#8F7D6A"/>
<path d="M205.229 116.087L225.154 107.266C229.489 105.353 233.31 102.274 236.263 98.3141C239.215 94.3546 241.203 89.6436 242.042 84.6193C250.237 36.6592 224.639 13.3871 208.648 3.7951C205.096 1.65124 201.158 0.38106 197.11 0.0733846C193.062 -0.234291 189.001 0.427971 185.211 2.01385L83.3826 44.7305C69.2835 50.5885 66.0593 79.3246 75.9845 109.218L53.0627 128.583C50.3585 130.868 48.5958 134.232 48.1624 137.937C47.9478 139.771 48.066 141.634 48.5102 143.418C48.9545 145.203 49.7161 146.874 50.7516 148.337C51.7871 149.8 53.0762 151.025 54.5453 151.944C56.0143 152.863 57.6346 153.456 59.3137 153.691C62.7046 154.164 66.1288 153.147 68.833 150.862L88.2453 134.459C96.8846 147.308 106.745 154.498 115.365 154.498C117.255 154.507 119.131 154.14 120.901 153.416L120.935 153.4L142.661 143.824V160.694C142.661 173.976 169.971 181.143 195.65 181.143C221.329 181.143 248.639 173.976 248.639 160.694V140.112C248.639 127.935 230.217 118.111 205.229 116.087ZM186.682 6.16862C189.919 4.81246 193.387 4.24568 196.845 4.50799C200.303 4.77029 203.666 5.85534 206.7 7.68713C221.724 16.7092 245.771 38.5985 238.047 83.8044C237.332 88.0933 235.636 92.1149 233.116 95.4955C230.597 98.876 227.335 101.506 223.636 103.14L195.252 115.702C166.543 115.796 143.943 125.904 142.72 138.994L129.821 144.69C136.19 132.631 135.935 111.037 128.134 88.3822C120.214 65.4152 107.107 48.8696 94.8934 44.6748L186.682 6.16862ZM108.461 60.7595C108.52 60.7996 108.587 60.804 108.648 60.8374C111.979 64.9475 114.926 69.41 117.446 74.1589L108.799 86.4629L97.9647 77.383C96.1424 75.7867 94.9587 73.4796 94.6633 70.9482C94.3679 68.4169 94.9838 65.8591 96.3812 63.8143C97.6971 61.7697 99.6573 60.3274 101.886 59.7637C104.115 59.2 106.456 59.5546 108.461 60.7595ZM119.601 78.4072C121.384 82.1467 122.96 86.0005 124.319 89.9475C125.51 93.4051 126.535 96.9286 127.388 100.504C125.745 100.167 124.202 99.3979 122.892 98.2637L112.046 89.1726L119.601 78.4072ZM129.64 130.556L118.239 131.573C115.916 131.758 113.62 130.937 111.847 129.287C110.074 127.638 108.966 125.292 108.763 122.757C108.56 120.222 109.278 117.702 110.762 115.741C112.246 113.78 114.377 112.536 116.694 112.278L129.344 110.988C130.276 117.464 130.375 124.05 129.64 130.556ZM80.3704 135.485L69.5892 120.251L80.3907 111.122C81.9269 109.816 83.8182 109.106 85.765 109.107C86.1439 109.107 86.5224 109.134 86.8982 109.187C88.6277 109.427 90.2532 110.223 91.569 111.472C92.8847 112.722 93.8316 114.37 94.2898 116.208C94.7479 118.046 94.6969 119.991 94.143 121.797C93.5891 123.603 92.5572 125.189 91.1781 126.354L80.3704 135.485ZM66.3385 147.339C65.4229 148.113 64.3768 148.682 63.26 149.013C62.1432 149.345 60.9776 149.433 59.8296 149.273C58.6816 149.112 57.5738 148.706 56.5694 148.078C55.565 147.45 54.6837 146.612 53.9758 145.612C53.2679 144.611 52.7472 143.468 52.4436 142.248C52.14 141.028 52.0593 139.755 52.2061 138.501C52.353 137.246 52.7245 136.036 53.2995 134.939C53.8745 133.841 54.6417 132.879 55.5573 132.105L66.3589 122.976L77.1421 138.208L66.3385 147.339ZM91.4777 131.729L93.6706 129.876C96.2619 127.702 97.9997 124.532 98.5322 121.01C99.0646 117.488 98.3519 113.876 96.5383 110.907C94.7246 107.937 91.9457 105.832 88.7644 105.017C85.5831 104.202 82.2372 104.738 79.4043 106.518C70.8303 79.7431 73.17 53.6901 84.8438 48.8852C90.1794 46.6898 96.7072 49.1836 103.137 55.0038C101.147 55.2021 99.2185 55.8605 97.4792 56.9353C95.7399 58.0102 94.2298 59.4769 93.049 61.2382C91.0388 64.221 90.1678 67.9404 90.6199 71.6114C91.0721 75.2824 92.8118 78.618 95.4722 80.9143L120.391 101.799C122.701 103.754 125.484 104.93 128.397 105.182C128.488 105.654 128.568 106.119 128.651 106.589L116.309 107.847C113 108.187 109.937 109.906 107.756 112.646C105.575 115.387 104.443 118.939 104.594 122.566C104.746 126.194 106.169 129.619 108.568 132.131C110.968 134.644 114.161 136.051 117.485 136.062C117.842 136.062 118.202 136.044 118.563 136.013L128.835 135.095C127.204 142.22 124.062 147.342 119.49 149.245L119.448 149.263C111.64 152.483 100.789 145.603 91.4777 131.729ZM244.563 160.694C244.563 168.265 224.476 176.69 195.65 176.69C166.824 176.69 146.737 168.26 146.737 160.694V149.673C154.661 158.479 173.339 164.526 195.65 164.526C217.96 164.526 236.639 158.479 244.563 149.673V160.694ZM195.65 160.073C166.392 160.073 146.737 149.753 146.737 140.112C146.737 130.471 166.38 120.16 195.621 120.153H195.652H195.674C224.918 120.153 244.563 130.478 244.563 140.114C244.563 149.751 224.908 160.073 195.65 160.073Z" fill="#8F7D6A"/>
</g>
</svg>
