<svg width="219" height="339" viewBox="0 0 219 339" fill="none" xmlns="http://www.w3.org/2000/svg">
<path d="M115.157 258.497C128.687 248.807 133.939 231.007 127.928 215.21C127.421 213.879 125.946 213.195 124.629 213.681C123.314 214.168 122.659 215.64 123.166 216.973C128.349 230.593 123.819 245.942 112.15 254.299C97.6694 264.669 77.7117 260.862 67.428 246.503L41.4053 210.166L93.125 173.126L100.221 183.035C101.051 184.194 102.647 184.473 103.786 183.658C104.924 182.842 105.174 181.241 104.344 180.082L68.2183 129.639C56.1952 112.851 33.0138 108.676 16.3885 120.583C8.55272 126.194 3.32452 134.565 1.66149 144.154C1.42117 145.545 2.35096 146.89 3.73876 147.156C5.12457 147.42 6.44512 146.513 6.68878 145.118C8.12175 136.846 12.6351 129.622 19.3947 124.781C33.7402 114.507 53.7289 118.116 64.0951 132.591L90.1178 168.928L38.2353 206.084C37.3825 205.556 36.274 205.552 35.4203 206.163C34.2808 206.979 34.0321 208.58 34.8623 209.739C41.3271 218.766 55.6198 238.723 63.3052 249.455C75.3546 266.279 98.5375 270.399 115.157 258.497Z" fill="#8F7D6A"/>
<path d="M106.818 187.897C105.68 188.712 105.43 190.313 106.26 191.473L111.297 198.505C112.127 199.664 113.723 199.943 114.862 199.128C116 198.313 116.25 196.711 115.42 195.552L110.383 188.52C109.553 187.36 107.957 187.082 106.818 187.897Z" fill="#8F7D6A"/>
<path d="M96.2202 109.201C111.773 111.919 126.409 101.434 128.846 85.8352C131.281 70.2329 120.608 55.3299 105.053 52.6117C80.7558 48.366 59.879 44.7179 35.5818 40.4722C20.0244 37.7536 5.39172 48.236 2.95694 63.8369C0.521946 79.4392 11.1949 94.3421 26.7503 97.0603C33.879 98.3064 88.977 107.935 96.2202 109.201ZM123.806 84.9547C121.804 97.7684 109.784 106.376 97.0092 104.145L64.7949 98.5159C67.3314 82.261 69.511 68.2934 72.0479 52.0381L104.264 57.6677C117.069 59.9073 125.809 72.1092 123.806 84.9547ZM7.99763 64.7181C10.0038 51.8745 21.9865 43.2924 34.7931 45.5281L67.0074 51.1574C64.4709 67.4123 62.2914 81.3799 59.7545 97.6352L27.5396 92.0051C14.7343 89.7654 5.99472 77.5629 7.99763 64.7181Z" fill="#8F7D6A"/>
<path d="M46.696 319.748C61.079 309.447 64.2475 289.152 53.758 274.505C43.2605 259.847 23.0186 256.302 8.63557 266.603C-5.75756 276.911 -8.92734 297.221 1.57044 311.88C12.06 326.526 32.3028 330.056 46.696 319.748ZM49.6354 277.457C57.9594 289.08 56.0604 304.922 45.6748 313.967L13.7802 269.432C25.688 262.512 41.3038 265.824 49.6354 277.457ZM9.6574 272.384L41.5523 316.92C29.6356 323.848 14.0179 320.551 5.69337 308.927C-2.63895 297.293 -0.738286 281.436 9.6574 272.384Z" fill="#8F7D6A"/>
<path d="M14.3242 226.858C33.1046 213.408 37.2284 187.012 23.5332 167.862C1.47292 137.031 -46.3222 148.026 -52.0806 184.96C-57.8402 221.865 -15.8811 248.49 14.3242 226.858ZM11.3176 222.66C4.03243 227.877 -4.74907 230.131 -13.6549 229.191L-2.24906 156.119C6.46691 158.258 14.0956 163.386 19.4092 170.813C31.4344 187.63 27.8335 210.831 11.3176 222.66ZM-47.0399 185.842C-44.0166 166.47 -26.6034 153.2 -7.28986 155.238L-18.6946 228.306C-37.4769 223.681 -50.0611 205.194 -47.0399 185.842Z" fill="#8F7D6A"/>
</svg>
