<svg width="135" height="164" viewBox="0 0 135 164" fill="none" xmlns="http://www.w3.org/2000/svg">
<g opacity="0.1" clip-path="url(#clip0_1_1971)">
<path d="M65.9573 155.797C67.2124 155.884 68.4676 155.796 69.676 155.447C72.5097 154.635 74.8138 152.455 76.2909 149.898C80.2413 143.067 79.3683 134.994 77.6175 127.657C75.289 117.898 71.4576 109.028 66.7987 100.212C65.1399 97.0741 63.5302 93.9055 61.7651 90.8269C56.3505 81.3906 49.1511 72.6635 43.0178 63.6665C40.7777 60.3805 38.4881 57.0238 35.3014 54.6498C31.1922 51.5894 23.3581 50.4618 18.9095 53.5352C14.5135 56.5732 13.0834 62.9787 12.7976 67.9849C12.66 70.3906 12.834 72.8031 13.0962 75.1973C15.7078 98.9466 27.1574 121.066 42.2723 139.539C47.7299 146.21 54.1012 152.744 62.3746 155.131C63.5393 155.466 64.7485 155.713 65.9573 155.797ZM61.3351 98.0098C62.2079 99.5825 63.048 100.886 63.684 102.282C65.3844 106.017 67.0351 109.777 68.6375 113.555C70.9844 119.091 72.9073 124.76 73.6784 130.761C74.0874 133.944 74.5151 137.125 74.8486 140.318C74.9252 141.049 74.8262 141.906 74.5031 142.552C73.5602 144.432 72.566 146.304 71.3979 148.048C70.0587 150.048 67.2005 151.95 63.8314 150.778C62.4718 150.304 61.1278 149.778 59.7475 149.37C58.0173 148.859 56.3802 148.143 55.0605 146.931C53.0241 145.059 50.8619 143.253 49.1759 141.089C45.2228 136.013 41.4982 130.758 37.7276 125.541C35.5844 122.574 33.4475 119.596 31.4799 116.513C30.5533 115.061 29.3957 113.63 29.2329 111.628C29.7005 111.332 30.1208 110.944 30.6142 110.777C32.8191 110.029 35.0355 109.314 37.2649 108.642C40.4423 107.683 43.7414 107.059 46.5298 105.072C46.9706 104.758 47.5331 104.604 48.051 104.409C51.6914 103.045 55.2508 101.506 58.5821 99.4765C59.3323 99.0181 60.1352 98.6453 61.3351 98.0098ZM27.0091 106.651C25.6537 105.848 25.2258 104.587 24.7962 103.321C24.0482 101.115 23.4398 98.8469 22.5051 96.723C20.5595 92.2975 20.1303 87.4991 18.8994 82.9013C18.3558 80.8712 18.0605 78.775 17.5409 76.7375C17.1005 75.0063 16.6862 73.2894 16.8063 71.4861C17.0592 67.6979 17.591 64.0122 19.3854 60.5502C20.9673 57.5006 22.7825 56.0928 26.1516 56.3091C31.7814 56.6689 36.0793 59.1235 38.4657 64.4786C39.0019 65.6842 39.7129 66.8387 40.5033 67.898C43.6214 72.0738 46.7026 76.2835 49.9874 80.3256C53.2921 84.3938 55.8063 88.9763 58.7891 93.2482C58.9618 93.4959 58.9497 93.8741 59.0209 94.1777C49.1126 100.161 38.3232 103.754 27.0091 106.651Z" fill="#8F7D6A"/>
<path d="M108.816 14.0015C97.1521 12.3544 85.439 11.0866 73.7542 9.61116C67.1918 8.78274 60.6368 7.89145 54.1083 6.82933C48.1433 5.85936 41.6505 3.24077 35.8596 5.49939C30.195 7.70744 26.1271 11.2249 24.2003 17.1647C23.5236 19.2514 23.1916 21.3504 23.9825 23.6588C25.6514 28.5333 27.3725 32.1245 31.8923 35.0214C36.0826 37.7077 41.0979 38.9396 45.9484 39.7715C55.5597 41.4176 65.3253 42.0165 74.9416 43.6322C82.9725 44.9813 90.8776 47.0391 98.9376 48.2107C110.205 49.8499 124.317 51.3193 130.222 38.9251C133.482 32.0826 131.503 22.9532 125.314 18.597C121.628 16.0032 117.011 15.2081 112.554 14.5445C111.309 14.3581 110.062 14.1783 108.816 14.0015ZM80.501 15.1438C82.2625 14.4123 83.9074 14.8451 85.5136 15.0622C91.4487 15.8678 97.3885 16.6442 103.303 17.5859C107.899 18.3178 112.44 19.4023 117.04 20.0977C120.094 20.5589 122.282 22.3693 124.536 24.1565C125.041 24.5567 125.449 25.129 125.776 25.6951C127.169 28.1019 127.554 30.6815 126.997 33.4131C126.569 35.5106 125.641 37.401 124.581 39.2229C122.637 42.565 122.588 42.5044 119.13 44.2517C117.981 44.8327 116.836 44.9802 115.604 44.9894C114.611 44.9963 113.607 45.0245 112.629 45.1806C110.191 45.5695 107.763 45.5427 105.337 45.1601C99.4201 44.2264 93.4957 43.3301 87.5941 42.3107C85.0837 41.8773 82.6113 41.2108 80.1388 40.58C79.114 40.3184 78.7389 39.4922 79.0531 38.5268C81.7192 30.3267 82.2957 23.5081 80.501 15.1438ZM74.6174 14.4848C75.4582 16.7572 76.8929 19.0142 77.3982 21.374C77.8392 23.4315 77.47 25.5672 77.1012 27.6388C76.5796 30.567 76.0447 33.533 74.7843 36.2249C74.3782 37.0913 73.8785 37.9481 73.1103 38.5161C71.3691 39.8022 68.4945 38.3877 66.5443 38.3265C60.524 38.1379 54.6474 36.879 48.7061 36.1123C44.818 35.6103 41.0889 34.5361 37.4601 33.1707C32.4426 31.2833 29.0727 27.8652 28.3219 22.2879C28.0615 20.3511 28.1612 18.4121 29.1081 16.7597C31.6076 12.3933 35.172 9.36461 40.4245 9.04166C44.3274 8.80132 48.2137 9.26181 51.9602 10.3246C58.1859 12.0906 64.5883 12.759 70.9489 13.7096C72.2488 13.9052 73.5984 13.8753 74.6174 14.4848Z" fill="#8F7D6A"/>
</g>
<defs>
<clipPath id="clip0_1_1971">
<rect width="147" height="112" fill="white" transform="matrix(-0.161418 0.986886 0.986886 0.161418 23.7285 0)"/>
</clipPath>
</defs>
</svg>
