<svg width="117" height="117" viewBox="0 0 117 117" fill="none" xmlns="http://www.w3.org/2000/svg">
<rect x="0.5" y="0.5" width="116" height="116" rx="58" stroke="#503217" stroke-dasharray="2 2"/>
<rect x="7.5" y="7.5" width="102" height="102" rx="51" fill="#E2DFCF"/>
<path d="M77.0292 53.1771C74.8487 65.7404 58.4894 76.2083 58.4894 76.2083C58.4894 76.2083 42.0096 65.7401 39.9496 53.1778C37.8896 40.6155 52.3095 36.4275 58.4894 46.1656C64.6695 36.4274 79.2097 40.6138 77.0292 53.1771Z" fill="#E2DFCF" fill-opacity="0.18"/>
<path d="M39.7509 63.711H44.033C44.4357 63.711 44.6371 63.711 44.8158 63.6396C44.8747 63.616 44.9312 63.5869 44.9846 63.5527C45.1465 63.4488 45.2636 63.2849 45.4977 62.9572L48.8318 58.2894C49.3746 57.5295 49.646 57.1496 50.0157 57.0648C50.1338 57.0377 50.2559 57.0323 50.3759 57.0489C50.7516 57.1007 51.0555 57.4552 51.6632 58.1642L54.8713 61.9069C55.4972 62.6372 55.8102 63.0023 56.1939 63.0502C56.3163 63.0655 56.4405 63.058 56.5602 63.0281C56.9353 62.9344 57.2021 62.5343 57.7356 61.734L63.1514 53.6103C63.7839 52.6615 64.1002 52.1871 64.5226 52.1135C64.6561 52.0902 64.7929 52.0943 64.9248 52.1255C65.3421 52.2243 65.6293 52.7168 66.2039 53.7018L71.5217 62.818C71.7471 63.2044 71.8598 63.3976 72.0314 63.5216C72.0878 63.5623 72.1483 63.5971 72.2119 63.6253C72.4054 63.711 72.6291 63.711 73.0765 63.711H77.2509M77.0292 53.1771C74.8487 65.7404 58.4894 76.2083 58.4894 76.2083C58.4894 76.2083 42.0096 65.7401 39.9496 53.1778C37.8896 40.6155 52.3095 36.4275 58.4894 46.1656C64.6695 36.4274 79.2097 40.6138 77.0292 53.1771Z" stroke="#503217" stroke-width="2.5" stroke-linecap="round" stroke-linejoin="round"/>
</svg>
