<svg width="117" height="117" viewBox="0 0 117 117" fill="none" xmlns="http://www.w3.org/2000/svg">
<rect x="0.5" y="0.5" width="116" height="116" rx="58" stroke="#503217" stroke-dasharray="2 2"/>
<rect x="7.5" y="7.5" width="102" height="102" rx="51" fill="#E2DFCF"/>
<path d="M53.2916 58.5H58.5H63.7083V72.0417C63.7083 74.9181 61.3764 77.25 58.5 77.25C55.6235 77.25 53.2916 74.9181 53.2916 72.0417V58.5Z" fill="#E2DFCF" fill-opacity="0.18"/>
<path d="M53.2917 58.5H63.7084M53.2917 58.5V72.0417C53.2917 74.9181 55.6236 77.25 58.5 77.25C61.3765 77.25 63.7084 74.9181 63.7084 72.0417V58.5M53.2917 58.5V46.0208M63.7084 58.5V46.0208M54.3334 46H62.6667C64.3926 46 65.7917 44.6009 65.7917 42.875C65.7917 41.1491 64.3926 39.75 62.6667 39.75H54.3334C52.6075 39.75 51.2084 41.1491 51.2084 42.875C51.2084 44.6009 52.6075 46 54.3334 46Z" stroke="#503217" stroke-width="2.5" stroke-linejoin="round"/>
</svg>
