<svg width="20" height="20" viewBox="0 0 20 20" fill="none" xmlns="http://www.w3.org/2000/svg">
<path d="M10.75 2.75H7.95C4.95021 2.75 3.45032 2.75 2.39886 3.51393C2.05928 3.76065 1.76065 4.05928 1.51393 4.39886C0.75 5.45032 0.75 6.95021 0.75 9.95L0.75 11.55C0.750001 14.5498 0.750001 16.0497 1.51393 17.1011C1.76065 17.4407 2.05928 17.7393 2.39886 17.9861C3.45032 18.75 4.95021 18.75 7.95 18.75H9.55C12.5498 18.75 14.0497 18.75 15.1011 17.9861C15.4407 17.7393 15.7393 17.4407 15.9861 17.1011C16.75 16.0497 16.75 14.5498 16.75 11.55V8.75M7.37277 12.1272L18.75 0.75M18.75 0.75L14.4835 0.75M18.75 0.75V5.01646" stroke="#EEEDE7" stroke-width="1.5" stroke-linecap="round" stroke-linejoin="round"/>
</svg>
