<svg width="48" height="48" viewBox="0 0 48 48" fill="none" xmlns="http://www.w3.org/2000/svg">
<path d="M3.81281 3.81182L2.9291 2.92776L2.9291 2.92776L3.81281 3.81182ZM16.1872 3.81182L17.0709 2.92776L16.1872 3.81182ZM16.1872 16.1814L15.3035 15.2973L16.1872 16.1814ZM31.2132 31.2015L30.3295 30.3174L30.3295 30.3174L31.2132 31.2015ZM43.5876 43.571L42.7039 42.687L42.7039 42.687L43.5876 43.571ZM12.6516 34.7357L11.7679 35.6197L12.6516 34.7357ZM1.29633 10.8982L2.54631 10.8911C2.54608 10.8507 2.54389 10.8103 2.53974 10.77L1.29633 10.8982ZM36.4984 46.0865L36.6265 44.8431C36.5863 44.839 36.5459 44.8368 36.5055 44.8366L36.4984 46.0865ZM11.389 18.6329L11.1917 17.3986C10.7918 17.4625 10.4477 17.7162 10.2683 18.0792C10.0889 18.4423 10.0965 18.8697 10.2887 19.2261L11.389 18.6329ZM28.7607 35.9978L28.1678 37.0983C28.5242 37.2903 28.9516 37.2978 29.3145 37.1185C29.6774 36.9391 29.931 36.5951 29.995 36.1953L28.7607 35.9978ZM3.81281 3.81182L4.69653 4.69587C7.6255 1.76804 12.3745 1.76804 15.3035 4.69587L16.1872 3.81182L17.0709 2.92776C13.1657 -0.97592 6.83431 -0.97592 2.9291 2.92776L3.81281 3.81182ZM16.1872 3.81182L15.3035 4.69587C18.2322 7.62343 18.2322 12.3697 15.3035 15.2973L16.1872 16.1814L17.0709 17.0654C20.9764 13.1615 20.9764 6.83171 17.0709 2.92776L16.1872 3.81182ZM31.2132 31.2015L32.0969 32.0856C35.0259 29.1577 39.7749 29.1577 42.7039 32.0856L43.5876 31.2015L44.4713 30.3174C40.5661 26.4138 34.2347 26.4138 30.3295 30.3174L31.2132 31.2015ZM43.5876 31.2015L42.7039 32.0856C45.6326 35.0131 45.6326 39.7594 42.7039 42.687L43.5876 43.571L44.4713 44.4551C48.3768 40.5512 48.3768 34.2214 44.4713 30.3174L43.5876 31.2015ZM12.6516 34.7357L13.5354 33.8516C6.38256 26.7016 2.58703 18.0656 2.54631 10.8911L1.29633 10.8982L0.0463507 10.9053C0.0916233 18.882 4.26234 28.117 11.7679 35.6197L12.6516 34.7357ZM1.29633 10.8982L2.53974 10.77C2.31607 8.59987 3.03559 6.35616 4.69653 4.69587L3.81281 3.81182L2.9291 2.92776C0.713512 5.14249 -0.244625 8.13947 0.0529174 11.0264L1.29633 10.8982ZM43.5876 43.571L42.7039 42.687C41.0429 44.3473 38.798 45.0668 36.6265 44.8431L36.4984 46.0865L36.3704 47.33C39.2579 47.6273 42.2557 46.6698 44.4713 44.4551L43.5876 43.571ZM36.4984 46.0865L36.5055 44.8366C29.3277 44.7959 20.6881 41.0016 13.5354 33.8516L12.6516 34.7357L11.7679 35.6197C19.2736 43.1224 28.512 47.2913 36.4913 47.3365L36.4984 46.0865ZM16.1872 16.1814L15.3035 15.2973C14.1418 16.4586 12.6971 17.1579 11.1917 17.3986L11.389 18.6329L11.5863 19.8672C13.5942 19.5463 15.5244 18.6113 17.0709 17.0654L16.1872 16.1814ZM18.8388 28.5509L19.7225 27.6668C16.711 24.6565 14.2867 21.3734 12.4892 18.0397L11.389 18.6329L10.2887 19.2261C12.205 22.7802 14.777 26.2581 17.9551 29.4349L18.8388 28.5509ZM28.7607 35.9978L29.995 36.1953C30.2357 34.6908 30.9352 33.2468 32.0969 32.0856L31.2132 31.2015L30.3295 30.3174C28.783 31.8633 27.8475 33.793 27.5264 35.8004L28.7607 35.9978ZM28.7607 35.9978L29.3536 34.8974C26.0185 33.1006 22.7341 30.6772 19.7225 27.6668L18.8388 28.5509L17.9551 29.4349C21.1332 32.6118 24.6124 35.1828 28.1678 37.0983L28.7607 35.9978Z" fill="#503217"/>
</svg>
