<svg width="77" height="55" viewBox="0 0 77 55" fill="none" xmlns="http://www.w3.org/2000/svg">
<path fill-rule="evenodd" clip-rule="evenodd" d="M60.197 14.9495C62.9578 11.0817 68.176 6.91803 75.28 3.45177C77.1262 2.55098 76.2933 -0.240979 74.2554 0.0168059C59.3291 1.90485 49.6546 8.44198 44.3715 18.1635C42.4066 21.7791 41.1721 25.6277 40.5146 29.5563C40.0812 32.1466 39.9667 34.0906 39.9667 36.3358C39.9667 46.3689 48.1002 54.5024 58.1333 54.5024C68.1665 54.5024 76.3 46.3689 76.3 36.3358C76.3 26.3026 68.0367 18.1635 58.5409 18.1635C59.0419 16.788 59.1622 16.3993 60.197 14.9495ZM20.2304 14.9495C22.9911 11.0817 28.2093 6.91803 35.3133 3.45177C37.1595 2.55098 36.3266 -0.240979 34.2887 0.0168059C19.3625 1.90485 9.68793 8.44198 4.40484 18.1635C2.43991 21.7791 1.20541 25.6277 0.547972 29.5563C0.114505 32.1466 8.42255e-07 34.0906 8.42255e-07 36.3358C8.42255e-07 46.3689 8.13349 54.5024 18.1667 54.5024C28.1998 54.5024 36.3333 46.3689 36.3333 36.3358C36.3333 26.3026 28.0701 18.1635 18.5743 18.1635C19.0752 16.788 19.1955 16.3993 20.2304 14.9495Z" fill="#8F7D6A"/>
</svg>
