<svg width="14" height="12" viewBox="0 0 14 12" fill="none" xmlns="http://www.w3.org/2000/svg">
<path fill-rule="evenodd" clip-rule="evenodd" d="M13.0076 7.973C13.0076 9.23968 11.9772 10.2684 10.7121 10.2684H3.18117C1.9161 10.2684 0.885703 9.23965 0.885703 7.973V3.18114C0.885703 2.75839 1.00146 2.36133 1.20237 2.02055L4.87702 5.6952C5.42678 6.24656 6.16298 6.55037 6.94743 6.55037C7.73027 6.55037 8.46647 6.24656 9.01623 5.6952L12.6909 2.02055C12.8918 2.36133 13.0075 2.75836 13.0075 3.18114V7.973H13.0076ZM10.7121 0.885703H3.18117C2.65875 0.885703 2.17649 1.06251 1.79071 1.35668L5.50233 5.06991C5.88653 5.45247 6.39929 5.66467 6.94743 5.66467C7.49396 5.66467 8.00675 5.45247 8.39092 5.06991L12.1025 1.35668C11.7168 1.06251 11.2346 0.885703 10.7121 0.885703ZM10.7121 0H3.18117C1.42743 0 0 1.42743 0 3.18117V7.97303C0 9.72838 1.42743 11.1542 3.18117 11.1542H10.7121C12.4658 11.1542 13.8933 9.72838 13.8933 7.97303V3.18114C13.8933 1.4274 12.4658 0 10.7121 0Z" fill="#503217"/>
</svg>
