<svg width="31" height="31" viewBox="0 0 31 31" fill="none" xmlns="http://www.w3.org/2000/svg">
<rect y="3.80646e-07" width="30.3529" height="30.3529" rx="6" fill="#503217"/>
<path d="M13.4464 16.5891C13.4006 16.5891 12.3936 16.5891 11.9359 16.5891C11.6918 16.5891 11.6155 16.4976 11.6155 16.2687C11.6155 15.6584 11.6155 15.0328 11.6155 14.4225C11.6155 14.1784 11.707 14.1021 11.9359 14.1021L13.4464 14.1021C13.4464 14.0564 13.4464 13.1714 13.4464 12.7595C13.4464 12.1492 13.5532 11.5694 13.8583 11.0354C14.1787 10.4861 14.6364 10.12 15.2162 9.90635C15.5977 9.76904 15.9791 9.70801 16.391 9.70801L17.8863 9.70801C18.0999 9.70801 18.1914 9.79955 18.1914 10.0132L18.1914 11.7525C18.1914 11.9661 18.0999 12.0576 17.8863 12.0576C17.4743 12.0576 17.0624 12.0576 16.6504 12.0729C16.2385 12.0729 16.0249 12.2713 16.0249 12.6985C16.0096 13.1562 16.0249 13.5986 16.0249 14.0716L17.7947 14.0716C18.0388 14.0716 18.1304 14.1632 18.1304 14.4073L18.1304 16.2534C18.1304 16.4976 18.0541 16.5738 17.7947 16.5738C17.2455 16.5738 16.0706 16.5738 16.0249 16.5738L16.0249 21.5478C16.0249 21.8071 15.9486 21.8987 15.674 21.8987C15.0331 21.8987 14.4076 21.8987 13.7668 21.8987C13.5379 21.8987 13.4464 21.8071 13.4464 21.5783C13.4464 19.9762 13.4464 16.6349 13.4464 16.5891Z" fill="#F2F2F2"/>
</svg>
