<svg width="31" height="31" viewBox="0 0 31 31" fill="none" xmlns="http://www.w3.org/2000/svg">
<rect y="3.80646e-07" width="30.3529" height="30.3529" rx="6" fill="#503217"/>
<g clip-path="url(#clip0_1_819)">
<path d="M21.9083 12.1595C21.8759 11.4248 21.7571 10.9197 21.5869 10.4821C21.4113 10.0175 21.1412 9.60153 20.7873 9.25576C20.4415 8.9046 20.0228 8.63174 19.5636 8.4589C19.1234 8.2887 18.6209 8.16989 17.8862 8.1375C17.146 8.10236 16.9111 8.09424 15.0337 8.09424C13.1564 8.09424 12.9214 8.10236 12.184 8.13476C11.4493 8.16715 10.9442 8.28607 10.5066 8.45616C10.0419 8.63174 9.62594 8.90186 9.28017 9.25576C8.92901 9.60153 8.65625 10.0202 8.48331 10.4794C8.31312 10.9197 8.19431 11.4221 8.16191 12.1568C8.12678 12.897 8.11865 13.132 8.11865 15.0093C8.11865 16.8867 8.12678 17.1216 8.15917 17.8591C8.19156 18.5938 8.31048 19.0989 8.48068 19.5366C8.65626 20.0012 8.92901 20.4171 9.28017 20.7629C9.62594 21.114 10.0446 21.3869 10.5038 21.5597C10.9442 21.7299 11.4465 21.8487 12.1813 21.8811C12.9187 21.9136 13.1538 21.9217 15.0311 21.9217C16.9084 21.9217 17.1434 21.9136 17.8809 21.8811C18.6156 21.8487 19.1207 21.7299 19.5582 21.5597C20.4875 21.2005 21.2222 20.4657 21.5815 19.5366C21.7516 19.0963 21.8705 18.5938 21.9029 17.8591C21.9353 17.1216 21.9434 16.8867 21.9434 15.0093C21.9434 13.132 21.9407 12.897 21.9083 12.1595ZM20.6631 17.8051C20.6333 18.4804 20.5199 18.845 20.4254 19.0881C20.193 19.6905 19.7149 20.1686 19.1125 20.401C18.8694 20.4955 18.5021 20.6089 17.8295 20.6386C17.1002 20.6711 16.8814 20.6791 15.0365 20.6791C13.1915 20.6791 12.9701 20.6711 12.2434 20.6386C11.5681 20.6089 11.2034 20.4955 10.9603 20.401C10.6605 20.2902 10.3877 20.1146 10.1662 19.885C9.93658 19.6608 9.761 19.3906 9.65021 19.0909C9.55567 18.8478 9.44224 18.4804 9.41259 17.8078C9.38009 17.0785 9.37207 16.8596 9.37207 15.0147C9.37207 13.1698 9.38009 12.9483 9.41259 12.2217C9.44224 11.5464 9.55567 11.1817 9.65021 10.9386C9.761 10.6388 9.93658 10.366 10.1689 10.1444C10.393 9.91481 10.6632 9.73923 10.963 9.62854C11.2061 9.534 11.5736 9.42057 12.2461 9.39082C12.9754 9.35842 13.1943 9.3503 15.0391 9.3503C16.8868 9.3503 17.1055 9.35842 17.8322 9.39082C18.5075 9.42057 18.8722 9.534 19.1153 9.62854C19.4151 9.73923 19.6879 9.91481 19.9094 10.1444C20.139 10.3686 20.3146 10.6388 20.4254 10.9386C20.5199 11.1817 20.6333 11.549 20.6631 12.2217C20.6955 12.951 20.7036 13.1698 20.7036 15.0147C20.7036 16.8596 20.6955 17.0757 20.6631 17.8051Z" fill="#F2F2F2"/>
<path d="M15.0335 11.457C13.0725 11.457 11.4814 13.048 11.4814 15.0091C11.4814 16.9702 13.0725 18.5612 15.0335 18.5612C16.9946 18.5612 18.5856 16.9702 18.5856 15.0091C18.5856 13.048 16.9946 11.457 15.0335 11.457ZM15.0335 17.3133C13.7613 17.3133 12.7294 16.2814 12.7294 15.0091C12.7294 13.7368 13.7613 12.705 15.0335 12.705C16.3058 12.705 17.3377 13.7368 17.3377 15.0091C17.3377 16.2814 16.3058 17.3133 15.0335 17.3133Z" fill="#F2F2F2"/>
<path d="M19.432 11.6891C19.432 12.1471 19.0607 12.5184 18.6027 12.5184C18.1447 12.5184 17.7734 12.1471 17.7734 11.6891C17.7734 11.2311 18.1447 10.8599 18.6027 10.8599C19.0607 10.8599 19.432 11.2311 19.432 11.6891Z" fill="#F2F2F2"/>
</g>
<defs>
<clipPath id="clip0_1_819">
<rect width="13.8275" height="13.8275" fill="white" transform="translate(8.09424 8.09424)"/>
</clipPath>
</defs>
</svg>
