<svg width="14" height="14" viewBox="0 0 14 14" fill="none" xmlns="http://www.w3.org/2000/svg">
<path d="M13.562 10.1022C13.5222 9.95198 13.4514 9.81181 13.3541 9.6907C13.2568 9.56959 13.1352 9.47023 12.9971 9.39904L10.0979 7.89669C9.86396 7.77266 9.59323 7.73685 9.33508 7.7958C9.07694 7.85474 8.84858 8.00451 8.69165 8.21779L8.2229 8.85997C8.19882 8.89335 8.16338 8.91677 8.12323 8.92583C8.08309 8.93489 8.04102 8.92898 8.00494 8.90919C7.31558 8.51692 6.68447 8.03017 6.12994 7.4631C5.56288 6.90854 5.07614 6.27743 4.68384 5.5881C4.66406 5.55202 4.65814 5.50994 4.66721 5.4698C4.67627 5.42966 4.69969 5.39421 4.73306 5.37013L5.3729 4.90138C5.58618 4.74446 5.73595 4.5161 5.7949 4.25795C5.85384 3.99981 5.81803 3.72908 5.694 3.49513L4.20103 0.598259C4.12933 0.459994 4.0293 0.338388 3.90746 0.241367C3.78562 0.144345 3.64471 0.074086 3.4939 0.0351676C3.34309 -0.00375085 3.18577 -0.010455 3.0322 0.0154922C2.87863 0.0414393 2.73225 0.0994553 2.60259 0.185759L0.7815 1.40451C0.525788 1.57477 0.319308 1.80924 0.182742 2.08443C0.0461772 2.35962 -0.0156774 2.66586 0.00337515 2.97248C0.0274777 3.49089 0.0972797 4.00617 0.211969 4.51232C0.7065 6.42013 1.89947 8.38185 3.5565 10.0412C5.21353 11.7006 7.17759 12.8889 9.0854 13.3787C9.59156 13.4934 10.1068 13.5632 10.6252 13.5873H10.7424C11.0284 13.5867 11.31 13.5161 11.5624 13.3817C11.8149 13.2473 12.0307 13.0532 12.1909 12.8162L13.4049 10.9951C13.4926 10.8658 13.5519 10.7193 13.5789 10.5654C13.606 10.4115 13.6002 10.2537 13.562 10.1022ZM12.6245 10.4725L11.4174 12.2959C11.3373 12.4142 11.2277 12.5095 11.0995 12.5724C10.9712 12.6353 10.8287 12.6636 10.6862 12.6545C10.2264 12.6333 9.7693 12.5729 9.31978 12.474C7.57134 12.0193 5.76197 10.9201 4.22212 9.37326C2.68228 7.82638 1.57837 6.02404 1.12369 4.2756C1.02401 3.82616 0.962849 3.36903 0.940875 2.9092C0.93151 2.76693 0.95971 2.6247 1.02265 2.49676C1.08559 2.36883 1.18105 2.25969 1.29947 2.18029L3.12056 0.966228C3.14829 0.947667 3.18095 0.937868 3.21431 0.938103H3.25884C3.28192 0.944118 3.30346 0.954957 3.32205 0.969905C3.34063 0.984852 3.35583 1.00357 3.36666 1.02482L4.86666 3.92404C4.8853 3.95999 4.89058 4.00139 4.88157 4.04087C4.87256 4.08036 4.84983 4.11536 4.81744 4.13966L4.17759 4.60841C3.96062 4.76983 3.8103 5.00514 3.75502 5.26986C3.69974 5.53458 3.74335 5.81038 3.87759 6.04513C4.31139 6.80341 4.8477 7.49823 5.47134 8.10997C6.08304 8.73367 6.77788 9.26997 7.53619 9.70372C7.77094 9.83797 8.04674 9.88157 8.31146 9.8263C8.57618 9.77102 8.81148 9.62069 8.9729 9.40372L9.44165 8.76154C9.46596 8.72914 9.50096 8.70642 9.54044 8.6974C9.57993 8.68839 9.62133 8.69368 9.65728 8.71232L12.5565 10.2123C12.5777 10.2234 12.5964 10.2389 12.6112 10.2576C12.6261 10.2764 12.6369 10.2981 12.6429 10.3213C12.6488 10.3445 12.6499 10.3687 12.6459 10.3923C12.6419 10.4159 12.633 10.4384 12.6198 10.4584L12.6245 10.4725Z" fill="#503217"/>
</svg>
