<svg width="31" height="31" viewBox="0 0 31 31" fill="none" xmlns="http://www.w3.org/2000/svg">
<rect y="3.80646e-07" width="30.3529" height="30.3529" rx="6" fill="#503217"/>
<path d="M21.45 10.8669C20.9593 11.0795 20.4522 11.2268 19.9124 11.2922C20.4686 10.965 20.8939 10.4416 21.0901 9.8037C20.5667 10.1145 19.9942 10.3271 19.389 10.458C18.8983 9.93456 18.195 9.60742 17.4262 9.60742C15.9377 9.60742 14.7437 10.8178 14.7437 12.2899C14.7437 12.5026 14.76 12.6989 14.8091 12.8952C12.5846 12.797 10.6217 11.7175 9.29684 10.0981C8.34815 11.7992 9.41134 13.2059 10.1147 13.6803C9.68941 13.6803 9.26413 13.5494 8.90428 13.3531C8.90428 14.678 9.83662 15.774 11.047 16.0193C10.7853 16.1011 10.1965 16.1502 9.83662 16.0684C10.1801 17.1316 11.1779 17.9167 12.3392 17.9331C11.4232 18.6528 10.082 19.2253 8.3645 19.0453C9.55855 19.8141 10.9652 20.2557 12.4864 20.2557C17.4262 20.2557 20.1087 16.1665 20.1087 12.6334C20.1087 12.5189 20.1087 12.4044 20.0924 12.2899C20.6485 11.881 21.1065 11.4067 21.45 10.8669Z" fill="#F2F2F2"/>
</svg>
