<svg width="41" height="41" viewBox="0 0 41 41" fill="none" xmlns="http://www.w3.org/2000/svg">
<path fill-rule="evenodd" clip-rule="evenodd" d="M22.8125 0H17.8125C10.3911 0 6.68048 1.24176e-07 4.07921 1.88994C3.2391 2.50031 2.50031 3.2391 1.88994 4.07921C1.24176e-07 6.68048 0 10.3911 0 17.8125V22.8125C0 30.2337 1.24176e-07 33.9446 1.88994 36.5458C2.50031 37.3858 3.2391 38.1248 4.07921 38.735C6.68048 40.625 10.3911 40.625 17.8125 40.625H22.8125C30.2337 40.625 33.9446 40.625 36.5458 38.735C37.3858 38.1248 38.1248 37.3858 38.735 36.5458C40.625 33.9446 40.625 30.2337 40.625 22.8125V17.8125C40.625 10.3911 40.625 6.68048 38.735 4.07921C38.1248 3.2391 37.3858 2.50031 36.5458 1.88994C33.9446 1.24176e-07 30.2337 0 22.8125 0ZM28.6458 20.3125C28.6458 24.9148 24.9148 28.6458 20.3125 28.6458C15.7101 28.6458 11.9792 24.9148 11.9792 20.3125C11.9792 15.7101 15.7101 11.9792 20.3125 11.9792C24.9148 11.9792 28.6458 15.7101 28.6458 20.3125ZM31.7708 10.9375C32.9215 10.9375 33.8542 10.0047 33.8542 8.85417C33.8542 7.70358 32.9215 6.77083 31.7708 6.77083C30.6202 6.77083 29.6875 7.70358 29.6875 8.85417C29.6875 10.0047 30.6202 10.9375 31.7708 10.9375Z" fill="#503217"/>
</svg>
