<svg width="25" height="25" viewBox="0 0 25 25" fill="none" xmlns="http://www.w3.org/2000/svg">
<path d="M9.896 19.7917C9.896 20.6546 9.19644 21.3542 8.3335 21.3542C7.47055 21.3542 6.771 20.6546 6.771 19.7917C6.771 18.9287 7.47055 18.2292 8.3335 18.2292C9.19644 18.2292 9.896 18.9287 9.896 19.7917Z" stroke="#503217" stroke-width="1.5" stroke-linecap="round" stroke-linejoin="round"/>
<path d="M18.2293 19.7917C18.2293 20.6546 17.5298 21.3542 16.6668 21.3542C15.8039 21.3542 15.1043 20.6546 15.1043 19.7917C15.1043 18.9287 15.8039 18.2292 16.6668 18.2292C17.5298 18.2292 18.2293 18.9287 18.2293 19.7917Z" stroke="#503217" stroke-width="1.5" stroke-linecap="round" stroke-linejoin="round"/>
<path d="M3.125 2.89583C2.71079 2.89583 2.375 3.23162 2.375 3.64583C2.375 4.06005 2.71079 4.39583 3.125 4.39583V3.64583V2.89583ZM19.1933 13.9953L18.5261 13.6527L19.1933 13.9953ZM21.1936 10.0994L20.5264 9.75687L21.1936 10.0994ZM8.20833 5.72917V6.47917H18.5248V5.72917V4.97917H8.20833V5.72917ZM21.1936 10.0994L20.5264 9.75687L18.5261 13.6527L19.1933 13.9953L19.8605 14.3378L21.8608 10.442L21.1936 10.0994ZM16.5245 15.625V14.875H8.20833V15.625V16.375H16.5245V15.625ZM5.20833 12.625H5.95833V11.9792H5.20833H4.45833V12.625H5.20833ZM5.20833 11.9792H5.95833V8.72917H5.20833H4.45833V11.9792H5.20833ZM5.20833 11.9792H5.95833V5.72917H5.20833H4.45833V11.9792H5.20833ZM8.20833 15.625V14.875C6.96569 14.875 5.95833 13.8676 5.95833 12.625H5.20833H4.45833C4.45833 14.6961 6.13726 16.375 8.20833 16.375V15.625ZM19.1933 13.9953L18.5261 13.6527C18.1408 14.4031 17.3681 14.875 16.5245 14.875V15.625V16.375C17.9305 16.375 19.2183 15.5886 19.8605 14.3378L19.1933 13.9953ZM18.5248 5.72917V6.47917C20.208 6.47917 21.2952 8.25956 20.5264 9.75687L21.1936 10.0994L21.8608 10.442C23.1421 7.94649 21.3301 4.97917 18.5248 4.97917V5.72917ZM5.20833 5.72917H5.95833C5.95833 4.16436 4.68981 2.89583 3.125 2.89583V3.64583V4.39583C3.86138 4.39583 4.45833 4.99279 4.45833 5.72917H5.20833ZM8.20833 5.72917V4.97917C6.13727 4.97917 4.45833 6.6581 4.45833 8.72917H5.20833H5.95833C5.95833 7.48652 6.96569 6.47917 8.20833 6.47917V5.72917Z" fill="#503217"/>
</svg>
