<svg width="40" height="32" viewBox="0 0 40 32" fill="none" xmlns="http://www.w3.org/2000/svg">
<path d="M1.25 1.25H17.4417C18.9416 1.25 19.6915 1.25 20.2172 1.63197C20.387 1.75533 20.5363 1.90464 20.6597 2.07443C21.0417 2.60016 21.0417 3.35011 21.0417 4.85V11.6667V9.01667C21.0417 7.51677 21.0417 6.76683 21.4236 6.2411C21.547 6.07131 21.6963 5.92199 21.8661 5.79863C22.3918 5.41667 23.1418 5.41667 24.6417 5.41667H31.3167C32.2761 5.41667 32.7558 5.41667 33.1626 5.60961C33.2962 5.67293 33.4222 5.75086 33.5386 5.84196C33.8931 6.11953 34.1076 6.54859 34.5367 7.4067L38.3699 15.0732C38.538 15.4093 38.622 15.5774 38.6731 15.7562C38.6901 15.8157 38.7043 15.8759 38.7157 15.9367C38.75 16.1195 38.75 16.3074 38.75 16.6832V22.65C38.75 24.1499 38.75 24.8998 38.368 25.4256C38.2447 25.5954 38.0954 25.7447 37.9256 25.868C37.3998 26.25 36.6499 26.25 35.15 26.25H34.5833M1.25 26.25H5.41667M13.75 26.25C13.75 28.5512 11.8845 30.4167 9.58333 30.4167C7.28215 30.4167 5.41667 28.5512 5.41667 26.25M13.75 26.25C13.75 23.9488 11.8845 22.0833 9.58333 22.0833C7.28215 22.0833 5.41667 23.9488 5.41667 26.25M13.75 26.25H26.25M34.5833 26.25C34.5833 28.5512 32.7179 30.4167 30.4167 30.4167C28.1155 30.4167 26.25 28.5512 26.25 26.25M34.5833 26.25C34.5833 23.9488 32.7179 22.0833 30.4167 22.0833C28.1155 22.0833 26.25 23.9488 26.25 26.25M1.25 8.54167H15.8333M1.25 15.8333H11.6667M26.25 10.625H30.4167L33.0208 15.8333H26.25V10.625Z" stroke="#503217" stroke-width="2.5" stroke-linecap="round" stroke-linejoin="round"/>
</svg>
