<svg width="40" height="36" viewBox="0 0 40 36" fill="none" xmlns="http://www.w3.org/2000/svg">
<path d="M1.29167 11.6667H38.7083M23.125 17.9167H27.2917M8.45 34.5833H31.55C34.5498 34.5833 36.0497 34.5833 37.1011 33.8194C37.4407 33.5727 37.7393 33.2741 37.9861 32.9345C38.75 31.883 38.75 30.3831 38.75 27.3833V8.45C38.75 5.45021 38.75 3.95032 37.9861 2.89886C37.7393 2.55928 37.4407 2.26065 37.1011 2.01393C36.0497 1.25 34.5498 1.25 31.55 1.25H8.45C5.45021 1.25 3.95032 1.25 2.89886 2.01393C2.55928 2.26065 2.26065 2.55928 2.01393 2.89886C1.25 3.95032 1.25 5.45022 1.25 8.45V27.3833C1.25 30.3831 1.25 31.883 2.01393 32.9345C2.26065 33.2741 2.55928 33.5727 2.89886 33.8194C3.95032 34.5833 5.45021 34.5833 8.45 34.5833Z" stroke="#503217" stroke-width="2.5" stroke-linecap="round" stroke-linejoin="round"/>
</svg>
