<svg width="24" height="24" viewBox="0 0 24 24" fill="none" xmlns="http://www.w3.org/2000/svg">
<path opacity="0.5" d="M12 21C16.9706 21 21 16.9706 21 12C21 7.02944 16.9706 3 12 3C7.02944 3 3 7.02944 3 12C3 16.9706 7.02944 21 12 21Z" stroke="#503217" stroke-width="1.5" stroke-linecap="round" stroke-linejoin="round"/>
<g opacity="0.5">
<path d="M12 13.5C11.1716 13.5 10.5 12.8284 10.5 12C10.5 11.4451 10.802 10.9616 11.25 10.7021L11.25 6.54883C11.2503 6.13484 11.5859 5.79883 12 5.79883C12.4141 5.79883 12.7497 6.13484 12.75 6.54883L12.75 10.7021C12.9935 10.8432 13.1942 11.0497 13.3262 11.2988L16.5 11.2988C16.9141 11.2988 17.2497 11.6348 17.25 12.0488C17.25 12.463 16.9142 12.7988 16.5 12.7988L13.2686 12.7988C13.0029 13.2198 12.5346 13.5 12 13.5Z" fill="#503217"/>
<path d="M12 13.5L12 13.75L12 13.5ZM10.5 12L10.75 12L10.5 12ZM11.25 10.7021L11.3753 10.9185C11.4525 10.8738 11.5 10.7913 11.5 10.7021L11.25 10.7021ZM11.25 6.54883L11 6.54867L11 6.54883L11.25 6.54883ZM12 5.79883L12 5.54883L12 5.79883ZM12.75 6.54883L13 6.54883L13 6.54867L12.75 6.54883ZM12.75 10.7021L12.5 10.7021C12.5 10.7913 12.5475 10.8738 12.6247 10.9185L12.75 10.7021ZM13.3262 11.2988L13.1053 11.4159C13.1486 11.4977 13.2336 11.5488 13.3262 11.5488L13.3262 11.2988ZM16.5 11.2988L16.5 11.5488L16.5 11.2988ZM17.25 12.0488L17.5 12.0488L17.5 12.0487L17.25 12.0488ZM16.5 12.7988L16.5 13.0488L16.5 12.7988ZM13.2686 12.7988L13.2686 12.5488C13.1827 12.5488 13.1029 12.5928 13.0571 12.6654L13.2686 12.7988ZM12 13.5L12 13.25C11.3096 13.25 10.75 12.6904 10.75 12L10.5 12L10.25 12C10.25 12.9665 11.0335 13.75 12 13.75L12 13.5ZM10.5 12L10.75 12C10.75 11.5383 11.0009 11.1353 11.3753 10.9185L11.25 10.7021L11.1247 10.4858C10.6031 10.7879 10.25 11.3518 10.25 12L10.5 12ZM11.25 10.7021L11.5 10.7021L11.5 6.54883L11.25 6.54883L11 6.54883L11 10.7021L11.25 10.7021ZM11.25 6.54883L11.5 6.54899C11.5002 6.27279 11.7242 6.04883 12 6.04883L12 5.79883L12 5.54883C11.4477 5.54883 11.0004 5.99689 11 6.54867L11.25 6.54883ZM12 5.79883L12 6.04883C12.2758 6.04883 12.4998 6.27279 12.5 6.54899L12.75 6.54883L13 6.54867C12.9996 5.99689 12.5523 5.54883 12 5.54883L12 5.79883ZM12.75 6.54883L12.5 6.54883L12.5 10.7021L12.75 10.7021L13 10.7021L13 6.54883L12.75 6.54883ZM12.75 10.7021L12.6247 10.9185C12.8283 11.0364 12.9955 11.2088 13.1053 11.4159L13.3262 11.2988L13.5471 11.1818C13.3928 10.8905 13.1587 10.6499 12.8753 10.4858L12.75 10.7021ZM13.3262 11.2988L13.3262 11.5488L16.5 11.5488L16.5 11.2988L16.5 11.0488L13.3262 11.0488L13.3262 11.2988ZM16.5 11.2988L16.5 11.5488C16.7758 11.5488 16.9998 11.7728 17 12.049L17.25 12.0488L17.5 12.0487C17.4996 11.4969 17.0523 11.0488 16.5 11.0488L16.5 11.2988ZM17.25 12.0488L17 12.0488C17 12.325 16.7761 12.5488 16.5 12.5488L16.5 12.7988L16.5 13.0488C17.0523 13.0488 17.5 12.6011 17.5 12.0488L17.25 12.0488ZM16.5 12.7988L16.5 12.5488L13.2686 12.5488L13.2686 12.7988L13.2686 13.0488L16.5 13.0488L16.5 12.7988ZM13.2686 12.7988L13.0571 12.6654C12.8352 13.0172 12.4448 13.25 12 13.25L12 13.5L12 13.75C12.6243 13.75 13.1707 13.4224 13.48 12.9322L13.2686 12.7988Z" fill="#503217"/>
</g>
</svg>
