<svg width="50" height="50" viewBox="0 0 50 50" fill="none" xmlns="http://www.w3.org/2000/svg">
<path d="M24.9998 10.4167C33.4093 10.4167 40.5345 18.017 43.8469 22.2441C44.656 23.2765 45.0605 23.7927 45.1688 24.6024C45.1986 24.8255 45.1986 25.1747 45.1688 25.3977C45.0605 26.2075 44.656 26.7237 43.8469 27.7561C40.5345 31.9831 33.4093 39.5834 24.9998 39.5834C16.5903 39.5834 9.4652 31.9831 6.15273 27.7561C5.34368 26.7237 4.93916 26.2075 4.83088 25.3977C4.80105 25.1747 4.80105 24.8255 4.83088 24.6024C4.93916 23.7927 5.34368 23.2765 6.15273 22.2441C9.4652 18.017 16.5903 10.4167 24.9998 10.4167Z" stroke="#8F7D6A" stroke-width="2.5" stroke-linejoin="round"/>
<path d="M31.25 25C31.25 28.4518 28.4518 31.25 25 31.25C21.5482 31.25 18.75 28.4518 18.75 25C18.75 21.5482 21.5482 18.75 25 18.75C28.4518 18.75 31.25 21.5482 31.25 25Z" stroke="#8F7D6A" stroke-width="2.5" stroke-linejoin="round"/>
</svg>
