<svg width="47" height="45" viewBox="0 0 47 45" fill="none" xmlns="http://www.w3.org/2000/svg">
<path d="M6.8675 37.811V39.7139C6.8675 41.2651 5.60998 42.5226 4.05875 42.5226C2.50752 42.5226 1.25 41.2651 1.25 39.7139V17.8163C1.25 16.2651 2.50752 15.0075 4.05875 15.0075C5.60998 15.0075 6.8675 16.2651 6.8675 17.8163V20.0543M6.8675 37.811L10.6169 41.3441C11.1682 41.8637 11.4439 42.1234 11.7754 42.3065C11.8833 42.3661 12.0012 42.4219 12.1157 42.4675C12.4676 42.6076 12.8348 42.6548 13.5693 42.7492C16.1821 43.0851 21.2102 43.6823 24.3675 43.744C27.6371 43.808 31.9997 43.3449 34.9261 42.9706C36.2645 42.7995 36.9338 42.7139 37.5023 42.3494C37.6838 42.2331 37.8659 42.0856 38.0175 41.9322C38.4921 41.4518 38.7222 40.7939 39.1825 39.478L44.5357 24.1748C45.4806 21.4736 45.9531 20.123 45.506 19.0592C45.3633 18.7198 45.1594 18.4095 44.9043 18.1438C44.1052 17.3115 42.6779 17.2095 39.8235 17.0055L32.5374 16.4848C30.8552 16.3646 29.6602 14.7957 29.9911 13.142C30.935 9.84214 30.9327 7.00409 29.984 4.02597C29.4253 2.27237 27.7152 1.25 25.9119 1.25C24.6492 1.25 23.4481 1.79065 22.9384 2.97213C21.9398 5.28663 20.254 10.0459 17.7968 12.559C14.1448 16.2941 11.4623 18.465 6.8675 20.0543M6.8675 37.811V20.0543" stroke="#503217" stroke-width="2.5" stroke-linecap="round" stroke-linejoin="round"/>
</svg>
