<svg width="43" height="32" viewBox="0 0 43 32" fill="none" xmlns="http://www.w3.org/2000/svg">
<path d="M21.4412 1.25C29.8507 1.25 36.9759 8.85027 40.2884 13.0773C41.0974 14.1097 41.5019 14.6259 41.6102 15.4357C41.64 15.6588 41.64 16.0079 41.6102 16.231C41.5019 17.0407 41.0974 17.5569 40.2884 18.5894C36.9759 22.8164 29.8507 30.4167 21.4412 30.4167C13.0317 30.4167 5.9066 22.8164 2.59413 18.5894C1.78509 17.5569 1.38057 17.0407 1.27228 16.231C1.24245 16.0079 1.24245 15.6588 1.27228 15.4357C1.38057 14.6259 1.78509 14.1097 2.59413 13.0773C5.9066 8.85027 13.0317 1.25 21.4412 1.25Z" stroke="#8F7D6A" stroke-width="2.5" stroke-linejoin="round"/>
</svg>
